<svg width="20" height="20" viewBox="0 0 20 20" fill="none" xmlns="http://www.w3.org/2000/svg">
<path d="M19.625 5.875V3.8125C19.625 3.26549 19.4077 2.74089 19.0209 2.35409C18.6341 1.9673 18.1095 1.75 17.5625 1.75H14.8125V1.0625C14.8125 0.880164 14.7401 0.705295 14.6111 0.576364C14.4822 0.447433 14.3073 0.375 14.125 0.375C13.9427 0.375 13.7678 0.447433 13.6389 0.576364C13.5099 0.705295 13.4375 0.880164 13.4375 1.0625V1.75H6.5625V1.0625C6.5625 0.880164 6.49007 0.705295 6.36114 0.576364C6.2322 0.447433 6.05734 0.375 5.875 0.375C5.69266 0.375 5.5178 0.447433 5.38886 0.576364C5.25993 0.705295 5.1875 0.880164 5.1875 1.0625V1.75H2.4375C1.89049 1.75 1.36589 1.9673 0.979092 2.35409C0.592299 2.74089 0.375 3.26549 0.375 3.8125V5.875H19.625ZM0.375 7.25V17.5625C0.375 18.1095 0.592299 18.6341 0.979092 19.0209C1.36589 19.4077 1.89049 19.625 2.4375 19.625H17.5625C18.1095 19.625 18.6341 19.4077 19.0209 19.0209C19.4077 18.6341 19.625 18.1095 19.625 17.5625V7.25H0.375ZM13.8844 11.2093L9.07187 15.3343C8.94033 15.4468 8.77121 15.5055 8.59827 15.4987C8.42533 15.492 8.26131 15.4203 8.13894 15.2979L6.07644 13.2354C5.9512 13.1057 5.88191 12.932 5.88347 12.7518C5.88504 12.5715 5.95734 12.3991 6.08481 12.2716C6.21228 12.1442 6.38471 12.0719 6.56497 12.0703C6.74523 12.0687 6.9189 12.138 7.04856 12.2633L8.66144 13.8761L12.9927 10.1636C13.0609 10.1022 13.1406 10.055 13.2273 10.0249C13.314 9.99477 13.4058 9.9823 13.4974 9.98824C13.589 9.99417 13.6785 10.0184 13.7605 10.0594C13.8426 10.1005 13.9156 10.1576 13.9753 10.2273C14.035 10.297 14.0801 10.378 14.108 10.4654C14.1359 10.5528 14.146 10.645 14.1377 10.7363C14.1294 10.8277 14.1029 10.9166 14.0597 10.9975C14.0166 11.0785 13.9577 11.1501 13.8864 11.2079L13.8844 11.2093Z" fill="#818194"/>
</svg>
