<svg width="22" height="23" viewBox="0 0 22 23" fill="none" xmlns="http://www.w3.org/2000/svg">
<path d="M10.9449 2.52584L8.73577 7.66834H6.5266C6.15993 7.66834 5.80243 7.69584 5.4541 7.76917L6.37077 5.56918L6.40743 5.48667L6.46244 5.34001C6.48994 5.27584 6.50827 5.22084 6.53577 5.17501C7.5991 2.70917 8.79077 1.93917 10.9449 2.52584Z" fill="#818194"/>
<path d="M17.1695 7.91589L17.1512 7.90673C16.6012 7.75089 16.042 7.66839 15.4737 7.66839H9.73535L11.7979 2.87423L11.8254 2.81006C11.9537 2.85589 12.0912 2.92006 12.2287 2.96589L14.2545 3.81839C15.382 4.28589 16.1704 4.77173 16.6562 5.35839C16.7387 5.46839 16.812 5.56923 16.8854 5.68839C16.9679 5.81673 17.032 5.94506 17.0687 6.08256C17.1054 6.16506 17.1329 6.23839 17.1512 6.32089C17.2887 6.78839 17.2979 7.32006 17.1695 7.91589Z" fill="#818194"/>
<path d="M11.4766 16.6883H11.7057C11.9807 16.6883 12.2099 16.4408 12.2099 16.1383C12.2099 15.7533 12.0999 15.6983 11.8616 15.6066L11.4766 15.4691V16.6883Z" fill="#818194"/>
<path d="M16.7662 9.22667C16.3537 9.1075 15.9229 9.04333 15.4737 9.04333H6.52704C5.90371 9.04333 5.31704 9.1625 4.76704 9.40084C3.17204 10.0883 2.05371 11.6742 2.05371 13.5167V15.3042C2.05371 15.5242 2.07204 15.735 2.09954 15.955C2.30121 18.87 3.85954 20.4283 6.77454 20.6208C6.98538 20.6483 7.19621 20.6667 7.42538 20.6667H14.5754C17.967 20.6667 19.7545 19.0533 19.9287 15.845C19.9379 15.6708 19.947 15.4875 19.947 15.3042V13.5167C19.947 11.4908 18.5995 9.78584 16.7662 9.22667ZM12.1737 14.7083C12.5954 14.855 13.1637 15.1667 13.1637 16.1383C13.1637 16.9725 12.5129 17.6417 11.7062 17.6417H11.477V17.8433C11.477 18.1092 11.2662 18.32 11.0004 18.32C10.7345 18.32 10.5237 18.1092 10.5237 17.8433V17.6417H10.4412C9.56121 17.6417 8.83704 16.8992 8.83704 15.9825C8.83704 15.7167 9.04788 15.5058 9.31371 15.5058C9.57954 15.5058 9.79038 15.7167 9.79038 15.9825C9.79038 16.3675 10.0837 16.6883 10.4412 16.6883H10.5237V15.1392L9.82704 14.8917C9.40538 14.745 8.83704 14.4333 8.83704 13.4617C8.83704 12.6275 9.48788 11.9583 10.2945 11.9583H10.5237V11.7567C10.5237 11.4908 10.7345 11.28 11.0004 11.28C11.2662 11.28 11.477 11.4908 11.477 11.7567V11.9583H11.5595C12.4395 11.9583 13.1637 12.7008 13.1637 13.6175C13.1637 13.8833 12.9529 14.0942 12.687 14.0942C12.4212 14.0942 12.2104 13.8833 12.2104 13.6175C12.2104 13.2325 11.917 12.9117 11.5595 12.9117H11.477V14.4608L12.1737 14.7083Z" fill="#818194"/>
<path d="M9.79004 13.4616C9.79004 13.8466 9.90004 13.9016 10.1384 13.9933L10.5234 14.1308V12.9116H10.2942C10.01 12.9116 9.79004 13.1591 9.79004 13.4616Z" fill="#818194"/>
</svg>
