<svg width="22" height="23" viewBox="0 0 22 23" fill="none" xmlns="http://www.w3.org/2000/svg">
<path d="M11.915 14.6166C11.915 12.7153 11.915 11.7646 12.5191 11.1739C13.1232 10.5833 14.0955 10.5833 16.04 10.5833C17.9846 10.5833 18.9569 10.5833 19.5609 11.1739C20.165 11.7646 20.165 12.7153 20.165 14.6166V16.6333C20.165 18.5346 20.165 19.4852 19.5609 20.0759C18.9569 20.6666 17.9846 20.6666 16.04 20.6666C14.0955 20.6666 13.1232 20.6666 12.5191 20.0759C11.915 19.4852 11.915 18.5346 11.915 16.6333V14.6166Z" fill="#818194"/>
<path d="M1.83496 8.38325C1.83496 10.2846 1.83496 11.2352 2.43905 11.8259C3.04315 12.4166 4.01542 12.4166 5.95996 12.4166C7.9045 12.4166 8.87678 12.4166 9.48087 11.8259C10.085 11.2352 10.085 10.2846 10.085 8.38325V6.36659C10.085 4.46525 10.085 3.51459 9.48087 2.92392C8.87678 2.33325 7.9045 2.33325 5.95996 2.33325C4.01542 2.33325 3.04315 2.33325 2.43905 2.92392C1.83496 3.51459 1.83496 4.46525 1.83496 6.36659V8.38325Z" fill="#818194"/>
<path d="M11.915 5.54159C11.915 4.54499 11.915 4.04669 12.072 3.65362C12.2814 3.12954 12.6829 2.71315 13.1883 2.49607C13.5673 2.33325 14.0478 2.33325 15.0088 2.33325H17.0713C18.0323 2.33325 18.5128 2.33325 18.8918 2.49607C19.3972 2.71315 19.7987 3.12954 20.008 3.65362C20.165 4.04669 20.165 4.54499 20.165 5.54159C20.165 6.53818 20.165 7.03648 20.008 7.42955C19.7987 7.95363 19.3972 8.37002 18.8918 8.58711C18.5128 8.74992 18.0323 8.74992 17.0713 8.74992H15.0088C14.0478 8.74992 13.5673 8.74992 13.1883 8.58711C12.6829 8.37002 12.2814 7.95363 12.072 7.42955C11.915 7.03648 11.915 6.53818 11.915 5.54159Z" fill="#818194"/>
<path d="M1.83496 17.4583C1.83496 18.4549 1.83496 18.9532 1.99196 19.3463C2.20129 19.8704 2.60281 20.2868 3.10818 20.5039C3.4872 20.6667 3.96771 20.6667 4.92871 20.6667H6.99121C7.95222 20.6667 8.43272 20.6667 8.81175 20.5039C9.31712 20.2868 9.71863 19.8704 9.92796 19.3463C10.085 18.9532 10.085 18.4549 10.085 17.4583C10.085 16.4617 10.085 15.9634 9.92796 15.5704C9.71863 15.0463 9.31712 14.6299 8.81175 14.4128C8.43272 14.25 7.95222 14.25 6.99121 14.25H4.92871C3.96771 14.25 3.4872 14.25 3.10818 14.4128C2.60281 14.6299 2.20129 15.0463 1.99196 15.5704C1.83496 15.9634 1.83496 16.4617 1.83496 17.4583Z" fill="#818194"/>
</svg>
