<svg width="22" height="23" viewBox="0 0 22 23" fill="none" xmlns="http://www.w3.org/2000/svg">
<path d="M15.9907 12.9259C16.1618 13.3211 16.2614 13.8047 16.2834 14.3638C16.8612 14.4962 17.2936 15.013 17.2936 15.6302C17.2936 16.3469 16.7104 16.9301 15.9937 16.9301C15.2769 16.9301 14.6937 16.3469 14.6937 15.6302C14.6937 15.02 15.1167 14.5086 15.6843 14.3688C15.6593 13.8135 15.5265 12.9685 14.9829 12.5513C14.7024 12.4781 14.4164 12.4278 14.1278 12.4008C14.1062 13.3737 10.8903 15.7748 10.8903 15.7748C10.8903 15.7748 7.67352 13.3741 7.65172 12.4012C7.33155 12.4304 7.01472 12.4888 6.70518 12.5757C6.3086 12.8897 6.10341 13.4747 6.09281 14.325C6.21121 14.394 6.3051 14.4983 6.3614 14.6232C6.78857 14.825 7.16595 15.2494 7.45493 15.8536C7.50333 15.9552 7.50973 16.07 7.47413 16.1747C7.64732 16.6205 7.74632 17.1077 7.74632 17.5169C7.74632 18.0902 7.74632 18.6324 7.12135 18.7716C7.05359 18.828 6.96816 18.8589 6.87997 18.8588H6.46239C6.36175 18.8586 6.26527 18.8186 6.19409 18.7475C6.12291 18.6763 6.08282 18.5799 6.08261 18.4792L6.08301 18.4644C6.08737 18.3665 6.12918 18.2741 6.19979 18.2061C6.2704 18.1382 6.36441 18.1 6.46239 18.0994H6.87997C6.92252 18.0995 6.96478 18.1066 7.00496 18.1206C7.01672 18.1181 7.02799 18.1137 7.03836 18.1076C7.08475 18.0252 7.08475 17.6821 7.08475 17.5173C7.08475 17.1849 7.00156 16.7835 6.85577 16.4105C6.77998 16.3676 6.71913 16.3025 6.68138 16.2239C6.42819 15.6938 6.08381 15.3514 5.80423 15.3514C5.51824 15.3514 5.15666 15.7218 4.90448 16.2721C4.86272 16.3621 4.79135 16.435 4.70229 16.4787C4.5705 16.8355 4.4981 17.2029 4.4981 17.5171C4.4981 17.6555 4.4981 18.0226 4.5509 18.109C4.5515 18.109 4.5633 18.1162 4.59649 18.1244C4.63969 18.1078 4.68609 18.0992 4.73249 18.0992H5.15086C5.24488 18.0993 5.33552 18.1343 5.40526 18.1974C5.475 18.2604 5.51889 18.3471 5.52844 18.4406L5.53044 18.464C5.53044 18.6882 5.36005 18.859 5.15086 18.859H4.73249C4.64949 18.859 4.5693 18.8312 4.5033 18.7808C4.26431 18.7358 4.09592 18.6304 3.98933 18.4588C3.86013 18.2514 3.83654 17.979 3.83654 17.5171C3.83654 17.1119 3.93013 16.6451 4.10012 16.1993C4.0749 16.1044 4.08374 16.0036 4.12512 15.9146C4.30211 15.5274 4.5273 15.1958 4.77608 14.956C4.9053 14.8296 5.05281 14.7233 5.21366 14.6408C5.27024 14.5082 5.36845 14.3976 5.49344 14.3256C5.49984 13.7927 5.58184 13.3325 5.73343 12.9531C3.99793 13.8335 2.80859 15.634 2.80859 17.7133C2.80859 20.3703 4.74989 20.5003 7.29114 20.5003C7.56853 20.5003 7.85251 20.4987 8.1427 20.4987H13.6358C13.9256 20.4987 14.2096 20.5003 14.4869 20.5003C17.0286 20.5003 18.9707 20.3703 18.9707 17.7133C18.9705 15.612 17.7558 13.7957 15.9907 12.9259Z" fill="#818194"/>
<path d="M10.8909 13.0986C13.3476 13.0986 15.3389 9.40458 15.3389 6.94811C15.3389 4.49205 13.3476 2.50076 10.8909 2.50076C8.43465 2.50076 6.44336 4.49205 6.44336 6.94811C6.44336 9.40458 8.43465 13.0986 10.8909 13.0986Z" fill="#818194"/>
<path d="M15.9935 16.2295C16.3249 16.2295 16.5935 15.9609 16.5935 15.6295C16.5935 15.2982 16.3249 15.0295 15.9935 15.0295C15.6622 15.0295 15.3936 15.2982 15.3936 15.6295C15.3936 15.9609 15.6622 16.2295 15.9935 16.2295Z" fill="#818194"/>
</svg>
