<svg width="22" height="22" viewBox="0 0 22 22" fill="none" xmlns="http://www.w3.org/2000/svg">
<mask id="mask0_7983_24243" style="mask-type:luminance" maskUnits="userSpaceOnUse" x="0" y="0" width="33" height="22">
<path d="M22 0H0V22H22V0Z" fill="white"/>
<path d="M11.2998 2.79307V10.6895L14.279 8.98145H19.207C20.3936 8.98145 21.3554 8.01956 21.3554 6.83302V2.79307C21.3554 1.60653 20.3936 0.644636 19.207 0.644636H13.4482C12.2617 0.644636 11.2998 1.60653 11.2998 2.79307Z" fill="white"/>
</mask>
<g mask="url(#mask0_7983_24243)">
<mask id="mask1_7983_24243" style="mask-type:luminance" maskUnits="userSpaceOnUse" x="0" y="0" width="22" height="22">
<path d="M0 6.48499e-05H21.9999V22H0V6.48499e-05Z" fill="white"/>
</mask>
<g mask="url(#mask1_7983_24243)">
<path d="M10.4212 16.0546L11.41 15.0658C11.9546 14.5212 12.8375 14.5212 13.3821 15.0658L15.6884 17.3721C16.2329 17.9167 16.2329 18.7996 15.6884 19.3442L14.6996 20.333L12.9586 21.2072C12.6967 21.3387 12.4 21.3844 12.1106 21.3377C11.8213 21.291 11.554 21.1543 11.3468 20.947L1.05295 10.6532C0.845714 10.446 0.709044 10.1787 0.662347 9.88938C0.61565 9.60004 0.661301 9.30335 0.792815 9.04143L1.66705 7.30047L2.65585 6.31164C3.20043 5.76705 4.08331 5.76705 4.62789 6.31164L6.93423 8.61798C7.47878 9.16256 7.47878 10.0454 6.93423 10.59L5.9454 11.5788" fill="#818194"/>
<path d="M10.4212 16.0546L11.41 15.0658C11.9546 14.5212 12.8375 14.5212 13.3821 15.0658L15.6884 17.3721C16.2329 17.9167 16.2329 18.7996 15.6884 19.3442L14.6996 20.333L12.9586 21.2072C12.6967 21.3387 12.4 21.3844 12.1106 21.3377C11.8213 21.291 11.554 21.1543 11.3468 20.947L1.05295 10.6532C0.845714 10.446 0.709044 10.1787 0.662347 9.88938C0.61565 9.60004 0.661301 9.30335 0.792815 9.04143L1.66705 7.30047L2.65585 6.31164C3.20043 5.76705 4.08331 5.76705 4.62789 6.31164L6.93423 8.61798C7.47878 9.16256 7.47878 10.0454 6.93423 10.59L5.9454 11.5788" stroke="#818194" stroke-width="1.17187" stroke-miterlimit="10" stroke-linecap="round" stroke-linejoin="round"/>
<path d="M11.2998 2.79307V10.6895L14.279 8.98145H19.207C20.3936 8.98145 21.3554 8.01956 21.3554 6.83302V2.79307C21.3554 1.60653 20.3936 0.644636 19.207 0.644636H13.4482C12.2617 0.644636 11.2998 1.60653 11.2998 2.79307Z" fill="#818194"/>
</g>
</g>
</svg>
