<svg width="22" height="18" viewBox="0 0 22 18" fill="none" xmlns="http://www.w3.org/2000/svg">
<path d="M21.0833 14.9596H0.916667C0.673552 14.9596 0.440394 15.0562 0.268485 15.2281C0.0965771 15.4 0 15.6332 0 15.8763C0 16.3625 0.193154 16.8288 0.536971 17.1727C0.880788 17.5165 1.3471 17.7096 1.83333 17.7096H20.1667C20.6529 17.7096 21.1192 17.5165 21.463 17.1727C21.8068 16.8288 22 16.3625 22 15.8763C22 15.6332 21.9034 15.4 21.7315 15.2281C21.5596 15.0562 21.3264 14.9596 21.0833 14.9596ZM18.3333 9.0013V11.7513C18.3333 11.8729 18.285 11.9894 18.1991 12.0754C18.1131 12.1613 17.9966 12.2096 17.875 12.2096H11.9167V11.7513C11.9167 11.022 11.6269 10.3225 11.1112 9.80676C10.5955 9.29103 9.89601 9.0013 9.16667 9.0013H8.25C7.52065 9.0013 6.82118 9.29103 6.30546 9.80676C5.78973 10.3225 5.5 11.022 5.5 11.7513V12.2096H4.125C4.00344 12.2096 3.88686 12.1613 3.80091 12.0754C3.71496 11.9894 3.66667 11.8729 3.66667 11.7513V3.95964C3.66667 3.83808 3.71496 3.7215 3.80091 3.63555C3.88686 3.54959 4.00344 3.5013 4.125 3.5013H12.375V1.66797H4.125C3.51721 1.66797 2.93432 1.90941 2.50455 2.33918C2.07478 2.76895 1.83333 3.35185 1.83333 3.95964V14.043H20.1667V9.0013H18.3333Z" fill="#818194"/>
<path d="M8.70801 9C9.8471 9 10.7705 8.07659 10.7705 6.9375C10.7705 5.79841 9.8471 4.875 8.70801 4.875C7.56892 4.875 6.64551 5.79841 6.64551 6.9375C6.64551 8.07659 7.56892 9 8.70801 9Z" fill="#818194"/>
<path d="M20.1667 0.292969H14.2083C13.9652 0.292969 13.7321 0.389546 13.5602 0.561454C13.3882 0.733362 13.2917 0.96652 13.2917 1.20964V5.94559C13.2917 6.14405 13.2275 6.33701 13.1083 6.49559L12.4667 7.3513C12.4156 7.4194 12.3845 7.50037 12.3769 7.58514C12.3692 7.66991 12.3853 7.75514 12.4234 7.83127C12.4615 7.90741 12.52 7.97143 12.5924 8.01618C12.6648 8.06093 12.7482 8.08464 12.8333 8.08464H20.1667C20.4098 8.08464 20.6429 7.98806 20.8148 7.81615C20.9868 7.64424 21.0833 7.41108 21.0833 7.16797V1.20964C21.0833 0.96652 20.9868 0.733362 20.8148 0.561454C20.6429 0.389546 20.4098 0.292969 20.1667 0.292969ZM19.25 4.41797C19.25 4.53953 19.2017 4.65611 19.1158 4.74206C19.0298 4.82801 18.9132 4.8763 18.7917 4.8763H17.875V5.79297C17.875 5.91453 17.8267 6.03111 17.7408 6.11706C17.6548 6.20301 17.5382 6.2513 17.4167 6.2513H16.9583C16.8368 6.2513 16.7202 6.20301 16.6342 6.11706C16.5483 6.03111 16.5 5.91453 16.5 5.79297V4.8763H15.5833C15.4618 4.8763 15.3452 4.82801 15.2592 4.74206C15.1733 4.65611 15.125 4.53953 15.125 4.41797V3.95964C15.125 3.83808 15.1733 3.7215 15.2592 3.63554C15.3452 3.54959 15.4618 3.5013 15.5833 3.5013H16.5V2.58464C16.5 2.46308 16.5483 2.3465 16.6342 2.26054C16.7202 2.17459 16.8368 2.1263 16.9583 2.1263H17.4167C17.5382 2.1263 17.6548 2.17459 17.7408 2.26054C17.8267 2.3465 17.875 2.46308 17.875 2.58464V3.5013H18.7917C18.9132 3.5013 19.0298 3.54959 19.1158 3.63554C19.2017 3.7215 19.25 3.83808 19.25 3.95964V4.41797Z" fill="#818194"/>
</svg>
