<svg width="22" height="15" viewBox="0 0 22 15" fill="none" xmlns="http://www.w3.org/2000/svg">
<path d="M0.916992 14.8334V12.2667C0.916992 11.7473 1.05067 11.2699 1.31803 10.8345C1.58539 10.399 1.9406 10.0667 2.38366 9.83758C3.33088 9.36397 4.29338 9.00876 5.27116 8.77196C6.24894 8.53515 7.24199 8.41675 8.25033 8.41675C9.25866 8.41675 10.2517 8.53515 11.2295 8.77196C12.2073 9.00876 13.1698 9.36397 14.117 9.83758C14.56 10.0667 14.9153 10.399 15.1826 10.8345C15.45 11.2699 15.5837 11.7473 15.5837 12.2667V14.8334H0.916992ZM17.417 14.8334V12.0834C17.417 11.4112 17.2298 10.7657 16.8555 10.147C16.4812 9.52821 15.9503 8.9973 15.2628 8.55425C16.042 8.64592 16.7753 8.80251 17.4628 9.02404C18.1503 9.24557 18.792 9.51675 19.3878 9.83758C19.9378 10.1431 20.358 10.4831 20.6482 10.8574C20.9385 11.2317 21.0837 11.6404 21.0837 12.0834V14.8334H17.417ZM8.25033 7.50008C7.24199 7.50008 6.3788 7.14105 5.66074 6.423C4.94269 5.70494 4.58366 4.84175 4.58366 3.83341C4.58366 2.82508 4.94269 1.96189 5.66074 1.24383C6.3788 0.525776 7.24199 0.166748 8.25033 0.166748C9.25866 0.166748 10.1219 0.525776 10.8399 1.24383C11.558 1.96189 11.917 2.82508 11.917 3.83341C11.917 4.84175 11.558 5.70494 10.8399 6.423C10.1219 7.14105 9.25866 7.50008 8.25033 7.50008ZM17.417 3.83341C17.417 4.84175 17.058 5.70494 16.3399 6.423C15.6219 7.14105 14.7587 7.50008 13.7503 7.50008C13.5823 7.50008 13.3684 7.48098 13.1087 7.44279C12.8489 7.4046 12.635 7.36258 12.467 7.31675C12.8795 6.82786 13.1965 6.2855 13.418 5.68966C13.6396 5.09383 13.7503 4.47508 13.7503 3.83341C13.7503 3.19175 13.6396 2.573 13.418 1.97716C13.1965 1.38133 12.8795 0.83897 12.467 0.350081C12.6809 0.273692 12.8948 0.22404 13.1087 0.201123C13.3225 0.178206 13.5364 0.166748 13.7503 0.166748C14.7587 0.166748 15.6219 0.525776 16.3399 1.24383C17.058 1.96189 17.417 2.82508 17.417 3.83341Z" fill="#818194"/>
</svg>
